<?xml version="1.0" encoding="UTF-8"?>
<svg xmlns="http://www.w3.org/2000/svg" viewBox="204 373 35 36">
  <path fill="#0E100E" d="M 230.1875 375.941406 C 226.757812 375.941406 223.882812 378.320312 223.121094 381.515625 C 222.988281 382.0625 222.921875 382.628906 222.921875 383.210938 L 222.921875 390.480469 L 230.183594 390.480469 C 230.765625 390.480469 231.335938 390.414062 231.878906 390.28125 C 235.074219 389.519531 237.449219 386.640625 237.449219 383.210938 C 237.453125 379.195312 234.199219 375.941406 230.1875 375.941406"/>
  <path fill="#0E100E" d="M 206.945312 383.210938 C 206.945312 386.644531 209.324219 389.519531 212.515625 390.285156 C 213.0625 390.414062 213.628906 390.484375 214.210938 390.484375 L 221.476562 390.484375 L 221.476562 383.214844 C 221.476562 382.628906 221.40625 382.0625 221.277344 381.519531 C 220.515625 378.320312 217.640625 375.941406 214.210938 375.941406 C 210.199219 375.941406 206.945312 379.195312 206.945312 383.210938"/>
  <path fill="#0E100E" d="M 214.210938 406.46875 C 217.640625 406.46875 220.515625 404.089844 221.277344 400.890625 C 221.410156 400.347656 221.476562 399.78125 221.476562 399.195312 L 221.476562 391.925781 L 214.214844 391.925781 C 213.632812 391.925781 213.0625 391.992188 212.519531 392.125 C 209.320312 392.886719 206.945312 395.765625 206.945312 399.195312 C 206.945312 403.210938 210.199219 406.464844 214.210938 406.464844 Z"/>
  <path fill="#0E100E" d="M 237.453125 399.199219 C 237.453125 395.765625 235.078125 392.890625 231.882812 392.125 C 231.335938 391.992188 230.769531 391.925781 230.1875 391.925781 L 222.921875 391.925781 L 222.921875 399.195312 C 222.921875 399.777344 222.992188 400.347656 223.121094 400.890625 C 223.886719 404.089844 226.757812 406.46875 230.1875 406.46875 C 234.199219 406.46875 237.453125 403.210938 237.453125 399.195312 Z"/>
</svg>
