<?xml version="1.0" encoding="UTF-8"?>
<svg xmlns="http://www.w3.org/2000/svg" viewBox="116 227 246 246">
  <path fill="#0e0e0e" d="M297.91,237.61c-25.31,0-46.51,17.55-52.15,41.14-.96,4.02-1.47,8.2-1.47,12.52v53.65h53.61c4.3,0,8.49-.51,12.51-1.47,23.58-5.64,41.11-26.86,41.11-52.19.01-29.63-24-53.65-53.61-53.65Z"/>
  <path fill="#0e0e0e" d="M126.42,291.27c0,25.33,17.54,46.55,41.11,52.19,4.02.96,8.19,1.47,12.51,1.47h53.61v-53.65c0-4.3-.51-8.5-1.47-12.52-5.63-23.61-26.84-41.16-52.15-41.16-29.61,0-53.61,24.03-53.61,53.66Z"/>
  <path fill="#0e0e0e" d="M180.03,462.88c25.31,0,46.51-17.55,52.15-41.15.96-4.02,1.47-8.2,1.47-12.52v-53.65h-53.61c-4.3,0-8.49.51-12.51,1.47-23.59,5.63-41.13,26.86-41.13,52.18,0,29.63,24.01,53.65,53.62,53.65h0Z"/>
  <path fill="#0e0e0e" d="M351.53,409.23c0-25.33-17.53-46.55-41.11-52.19-4.02-.96-8.19-1.47-12.51-1.47h-53.61v53.65c0,4.3.51,8.5,1.47,12.52,5.64,23.6,26.84,41.15,52.15,41.15,29.61,0,53.61-24.03,53.61-53.66h0Z"/>
</svg>
