<?xml version="1.0" encoding="UTF-8"?>
<svg id="_레이어_1" data-name="레이어_1" xmlns="http://www.w3.org/2000/svg" version="1.1" viewBox="0 0 1500 700">
  <!-- Generator: Adobe Illustrator 30.1.0, SVG Export Plug-In . SVG Version: 2.1.1 Build 136)  -->
  <defs>
    <style>
      .st0 {
        fill: #040000;
      }

      .st1 {
        fill: #0e0e0e;
      }
    </style>
  </defs>
  <g>
    <path class="st0" d="M417.1,381.48l134.19-144.36h25.11v222.58h-31.79v-69h-127.51v-9.22ZM544.61,365.26v-102.38l-95.39,102.38h95.39Z"/>
    <path class="st0" d="M632.05,237.12h139.28v12.72h-107.48v92.21h91.58v12.72h-91.58v92.22h110.65v12.72h-142.45v-222.58Z"/>
    <path class="st0" d="M803.12,237.12h33.71l64.55,178.38,69-178.38h13.68l-89.36,225.76h-9.22l-82.36-225.76Z"/>
    <path class="st0" d="M1025.4,237.12h139.28v12.72h-107.48v92.21h91.58v12.72h-91.58v92.22h110.65v12.72h-142.45v-222.58Z"/>
    <path class="st0" d="M1210.78,237.12h76.32c44.52,0,83.94,25.43,83.94,63.59s-35.3,61.05-77.27,63.27l79.81,95.71h-41.65l-79.49-95.39h-9.85v95.39h-31.8v-222.58ZM1338.29,293.4c-9.53-30.53-34.98-43.56-66.77-43.56h-28.94v101.75h54.37c33.07,0,50.55-27.98,41.33-58.19Z"/>
  </g>
  <g>
    <path class="st1" d="M297.91,237.61c-25.31,0-46.51,17.55-52.15,41.14-.96,4.02-1.47,8.2-1.47,12.52v53.65h53.61c4.3,0,8.49-.51,12.51-1.47,23.58-5.64,41.11-26.86,41.11-52.19.01-29.63-24-53.65-53.61-53.65Z"/>
    <path class="st1" d="M126.42,291.27c0,25.33,17.54,46.55,41.11,52.19,4.02.96,8.19,1.47,12.51,1.47h53.61v-53.65c0-4.3-.51-8.5-1.47-12.52-5.63-23.61-26.84-41.16-52.15-41.16-29.61,0-53.61,24.03-53.61,53.66Z"/>
    <path class="st1" d="M180.03,462.88c25.31,0,46.51-17.55,52.15-41.15.96-4.02,1.47-8.2,1.47-12.52v-53.65h-53.61c-4.3,0-8.49.51-12.51,1.47-23.59,5.63-41.13,26.86-41.13,52.18,0,29.63,24.01,53.65,53.62,53.65h0Z"/>
    <path class="st1" d="M351.53,409.23c0-25.33-17.53-46.55-41.11-52.19-4.02-.96-8.19-1.47-12.51-1.47h-53.61v53.65c0,4.3.51,8.5,1.47,12.52,5.64,23.6,26.84,41.15,52.15,41.15,29.61,0,53.61-24.03,53.61-53.66h0Z"/>
  </g>
</svg>
