<?xml version="1.0" encoding="UTF-8"?>
<svg id="_레이어_1" data-name="레이어_1" xmlns="http://www.w3.org/2000/svg" version="1.1" viewBox="0 0 1080 1080">
  <!-- Generator: Adobe Illustrator 30.1.0, SVG Export Plug-In . SVG Version: 2.1.1 Build 136)  -->
  <defs>
    <style>
      .st0 {
        fill: #040000;
      }

      .st1 {
        fill: #0e0e0e;
      }
    </style>
  </defs>
  <g>
    <path class="st0" d="M157.07,741.42l107.44-115.59h20.11v178.22h-25.46v-55.25h-102.09v-7.38ZM259.17,728.43v-81.98l-76.38,81.98h76.38Z"/>
    <path class="st0" d="M329.18,625.83h111.52v10.18h-86.06v73.83h73.33v10.18h-73.33v73.84h88.6v10.18h-114.06v-178.22Z"/>
    <path class="st0" d="M466.16,625.83h26.99l51.68,142.83,55.25-142.83h10.95l-71.55,180.77h-7.38l-65.94-180.77Z"/>
    <path class="st0" d="M644.14,625.83h111.52v10.18h-86.06v73.83h73.33v10.18h-73.33v73.84h88.6v10.18h-114.06v-178.22Z"/>
    <path class="st0" d="M792.57,625.83h61.11c35.65,0,67.21,20.36,67.21,50.92s-28.26,48.88-61.87,50.66l63.91,76.64h-33.35l-63.65-76.38h-7.89v76.38h-25.46v-178.22ZM894.67,670.89c-7.63-24.44-28.01-34.88-53.46-34.88h-23.17v81.47h43.54c26.48,0,40.48-22.41,33.1-46.59Z"/>
  </g>
  <g>
    <path class="st1" d="M609.1,273.4c-29.67,0-54.53,20.57-61.13,48.24-1.13,4.71-1.72,9.61-1.72,14.67v62.89h62.84c5.04,0,9.95-.59,14.66-1.73,27.64-6.61,48.2-31.49,48.2-61.18.01-34.74-28.13-62.89-62.84-62.89Z"/>
    <path class="st1" d="M408.05,336.31c0,29.69,20.56,54.57,48.2,61.18,4.71,1.13,9.61,1.73,14.66,1.73h62.84v-62.89c0-5.05-.59-9.96-1.72-14.67-6.61-27.68-31.47-48.25-61.13-48.25-34.71,0-62.84,28.17-62.84,62.91Z"/>
    <path class="st1" d="M470.91,537.5c29.67,0,54.53-20.57,61.13-48.24,1.13-4.71,1.72-9.61,1.72-14.67v-62.89h-62.84c-5.04,0-9.95.59-14.66,1.73-27.65,6.6-48.21,31.49-48.21,61.17,0,34.74,28.15,62.89,62.86,62.89h0Z"/>
    <path class="st1" d="M671.96,474.6c0-29.69-20.56-54.57-48.2-61.18-4.71-1.13-9.6-1.73-14.66-1.73h-62.84v62.89c0,5.05.59,9.96,1.72,14.67,6.61,27.66,31.47,48.24,61.13,48.24,34.71,0,62.84-28.17,62.84-62.91h0Z"/>
  </g>
</svg>
