<?xml version="1.0" encoding="UTF-8"?>
<svg xmlns="http://www.w3.org/2000/svg" viewBox="202 371 178 40">
  <!-- Clover symbol -->
  <path fill="#0E100E" d="M 230.1875 375.941406 C 226.757812 375.941406 223.882812 378.320312 223.121094 381.515625 C 222.988281 382.0625 222.921875 382.628906 222.921875 383.210938 L 222.921875 390.480469 L 230.183594 390.480469 C 230.765625 390.480469 231.335938 390.414062 231.878906 390.28125 C 235.074219 389.519531 237.449219 386.640625 237.449219 383.210938 C 237.453125 379.195312 234.199219 375.941406 230.1875 375.941406"/>
  <path fill="#0E100E" d="M 206.945312 383.210938 C 206.945312 386.644531 209.324219 389.519531 212.515625 390.285156 C 213.0625 390.414062 213.628906 390.484375 214.210938 390.484375 L 221.476562 390.484375 L 221.476562 383.214844 C 221.476562 382.628906 221.40625 382.0625 221.277344 381.519531 C 220.515625 378.320312 217.640625 375.941406 214.210938 375.941406 C 210.199219 375.941406 206.945312 379.195312 206.945312 383.210938"/>
  <path fill="#0E100E" d="M 214.210938 406.46875 C 217.640625 406.46875 220.515625 404.089844 221.277344 400.890625 C 221.410156 400.347656 221.476562 399.78125 221.476562 399.195312 L 221.476562 391.925781 L 214.214844 391.925781 C 213.632812 391.925781 213.0625 391.992188 212.519531 392.125 C 209.320312 392.886719 206.945312 395.765625 206.945312 399.195312 C 206.945312 403.210938 210.199219 406.464844 214.210938 406.464844 Z"/>
  <path fill="#0E100E" d="M 237.453125 399.199219 C 237.453125 395.765625 235.078125 392.890625 231.882812 392.125 C 231.335938 391.992188 230.769531 391.925781 230.1875 391.925781 L 222.921875 391.925781 L 222.921875 399.195312 C 222.921875 399.777344 222.992188 400.347656 223.121094 400.890625 C 223.886719 404.089844 226.757812 406.46875 230.1875 406.46875 C 234.199219 406.46875 237.453125 403.210938 237.453125 399.195312 Z"/>
  <!-- 4EVER text -->
  <path fill="#000000" d="M 263.617188 393.238281 L 263.617188 379.363281 L 250.691406 393.238281 Z M 246.339844 395.4375 L 264.523438 375.875 L 267.925781 375.875 L 267.925781 406.035156 L 263.617188 406.035156 L 263.617188 396.6875 L 246.339844 396.6875 Z"/>
  <path fill="#000000" d="M 275.464844 375.875 L 294.339844 375.875 L 294.339844 377.597656 L 279.777344 377.597656 L 279.777344 390.09375 L 292.1875 390.09375 L 292.1875 391.816406 L 279.777344 391.816406 L 279.777344 404.3125 L 294.769531 404.3125 L 294.769531 406.035156 L 275.464844 406.035156 Z"/>
  <path fill="#000000" d="M 298.648438 375.875 L 303.21875 375.875 L 311.964844 400.046875 L 321.316406 375.875 L 323.167969 375.875 L 311.058594 406.46875 L 309.808594 406.46875 Z"/>
  <path fill="#000000" d="M 328.769531 375.875 L 347.644531 375.875 L 347.644531 377.597656 L 333.082031 377.597656 L 333.082031 390.09375 L 345.492188 390.09375 L 345.492188 391.816406 L 333.082031 391.816406 L 333.082031 404.3125 L 348.074219 404.3125 L 348.074219 406.035156 L 328.769531 406.035156 Z"/>
  <path fill="#000000" d="M 371.171875 383.5 C 369.878906 379.363281 366.433594 377.597656 362.125 377.597656 L 358.203125 377.597656 L 358.203125 391.386719 L 365.570312 391.386719 C 370.050781 391.386719 372.421875 387.59375 371.171875 383.5 M 353.894531 375.875 L 364.234375 375.875 C 370.269531 375.875 375.609375 379.320312 375.609375 384.492188 C 375.609375 389.402344 370.828125 392.765625 365.140625 393.066406 L 375.953125 406.035156 L 370.308594 406.035156 L 359.539062 393.109375 L 358.203125 393.109375 L 358.203125 406.035156 L 353.894531 406.035156 Z"/>
</svg>
