<?xml version="1.0" encoding="UTF-8"?>
<svg xmlns="http://www.w3.org/2000/svg" viewBox="154 369 286 102">
  <!-- Clover symbol -->
  <path fill="#0E100E" d="M 230.1875 375.941406 C 226.757812 375.941406 223.882812 378.320312 223.121094 381.515625 C 222.988281 382.0625 222.921875 382.628906 222.921875 383.210938 L 222.921875 390.480469 L 230.183594 390.480469 C 230.765625 390.480469 231.335938 390.414062 231.878906 390.28125 C 235.074219 389.519531 237.449219 386.640625 237.449219 383.210938 C 237.453125 379.195312 234.199219 375.941406 230.1875 375.941406"/>
  <path fill="#0E100E" d="M 206.945312 383.210938 C 206.945312 386.644531 209.324219 389.519531 212.515625 390.285156 C 213.0625 390.414062 213.628906 390.484375 214.210938 390.484375 L 221.476562 390.484375 L 221.476562 383.214844 C 221.476562 382.628906 221.40625 382.0625 221.277344 381.519531 C 220.515625 378.320312 217.640625 375.941406 214.210938 375.941406 C 210.199219 375.941406 206.945312 379.195312 206.945312 383.210938"/>
  <path fill="#0E100E" d="M 214.210938 406.46875 C 217.640625 406.46875 220.515625 404.089844 221.277344 400.890625 C 221.410156 400.347656 221.476562 399.78125 221.476562 399.195312 L 221.476562 391.925781 L 214.214844 391.925781 C 213.632812 391.925781 213.0625 391.992188 212.519531 392.125 C 209.320312 392.886719 206.945312 395.765625 206.945312 399.195312 C 206.945312 403.210938 210.199219 406.464844 214.210938 406.464844 Z"/>
  <path fill="#0E100E" d="M 237.453125 399.199219 C 237.453125 395.765625 235.078125 392.890625 231.882812 392.125 C 231.335938 391.992188 230.769531 391.925781 230.1875 391.925781 L 222.921875 391.925781 L 222.921875 399.195312 C 222.921875 399.777344 222.992188 400.347656 223.121094 400.890625 C 223.886719 404.089844 226.757812 406.46875 230.1875 406.46875 C 234.199219 406.46875 237.453125 403.210938 237.453125 399.195312 Z"/>
  <!-- 4EVER text -->
  <path fill="#000000" d="M 263.617188 393.238281 L 263.617188 379.363281 L 250.691406 393.238281 Z M 246.339844 395.4375 L 264.523438 375.875 L 267.925781 375.875 L 267.925781 406.035156 L 263.617188 406.035156 L 263.617188 396.6875 L 246.339844 396.6875 Z"/>
  <path fill="#000000" d="M 275.464844 375.875 L 294.339844 375.875 L 294.339844 377.597656 L 279.777344 377.597656 L 279.777344 390.09375 L 292.1875 390.09375 L 292.1875 391.816406 L 279.777344 391.816406 L 279.777344 404.3125 L 294.769531 404.3125 L 294.769531 406.035156 L 275.464844 406.035156 Z"/>
  <path fill="#000000" d="M 298.648438 375.875 L 303.21875 375.875 L 311.964844 400.046875 L 321.316406 375.875 L 323.167969 375.875 L 311.058594 406.46875 L 309.808594 406.46875 Z"/>
  <path fill="#000000" d="M 328.769531 375.875 L 347.644531 375.875 L 347.644531 377.597656 L 333.082031 377.597656 L 333.082031 390.09375 L 345.492188 390.09375 L 345.492188 391.816406 L 333.082031 391.816406 L 333.082031 404.3125 L 348.074219 404.3125 L 348.074219 406.035156 L 328.769531 406.035156 Z"/>
  <path fill="#000000" d="M 371.171875 383.5 C 369.878906 379.363281 366.433594 377.597656 362.125 377.597656 L 358.203125 377.597656 L 358.203125 391.386719 L 365.570312 391.386719 C 370.050781 391.386719 372.421875 387.59375 371.171875 383.5 M 353.894531 375.875 L 364.234375 375.875 C 370.269531 375.875 375.609375 379.320312 375.609375 384.492188 C 375.609375 389.402344 370.828125 392.765625 365.140625 393.066406 L 375.953125 406.035156 L 370.308594 406.035156 L 359.539062 393.109375 L 358.203125 393.109375 L 358.203125 406.035156 L 353.894531 406.035156 Z"/>
  <!-- FOREVER CLINIC full name -->
  <path fill="#000000" d="M 163.988281 443.847656 L 163.988281 453.78125 L 172.503906 453.78125 L 172.503906 454.992188 L 163.988281 454.992188 L 163.988281 465.578125 L 160.417969 465.578125 L 160.417969 442.636719 L 174.554688 442.636719 L 174.554688 443.847656 Z"/>
  <path fill="#000000" d="M 198.542969 454.074219 C 198.542969 447.257812 194.917969 443.457031 190.789062 443.457031 C 186.664062 443.457031 183.035156 447.257812 183.035156 454.074219 C 183.035156 460.890625 186.664062 464.726562 190.789062 464.726562 C 194.917969 464.726562 198.542969 460.890625 198.542969 454.074219 M 179.375 454.074219 C 179.375 446.800781 184.527344 442.308594 190.703125 442.308594 C 196.875 442.308594 202.027344 446.800781 202.027344 454.074219 C 202.027344 461.351562 196.875 465.90625 190.703125 465.90625 C 184.527344 465.90625 179.375 461.351562 179.375 454.074219"/>
  <path fill="#000000" d="M 223.242188 448.335938 C 222.273438 445.242188 219.695312 443.921875 216.472656 443.921875 L 213.539062 443.921875 L 213.539062 454.234375 L 219.050781 454.234375 C 222.402344 454.234375 224.175781 451.398438 223.242188 448.335938 M 210.316406 442.632812 L 218.050781 442.632812 C 222.566406 442.632812 226.5625 445.210938 226.5625 449.078125 C 226.5625 452.75 222.984375 455.265625 218.726562 455.492188 L 226.820312 465.195312 L 222.597656 465.195312 L 214.539062 455.523438 L 213.539062 455.523438 L 213.539062 465.195312 L 210.316406 465.195312 Z"/>
  <path fill="#000000" d="M 234.4375 442.632812 L 248.558594 442.632812 L 248.558594 443.921875 L 237.664062 443.921875 L 237.664062 453.265625 L 246.945312 453.265625 L 246.945312 454.554688 L 237.664062 454.554688 L 237.664062 463.902344 L 248.878906 463.902344 L 248.878906 465.195312 L 234.4375 465.195312 Z"/>
  <path fill="#000000" d="M 255.566406 442.632812 L 258.984375 442.632812 L 265.527344 460.714844 L 272.519531 442.632812 L 273.90625 442.632812 L 264.847656 465.515625 L 263.914062 465.515625 Z"/>
  <path fill="#000000" d="M 282.742188 442.632812 L 296.863281 442.632812 L 296.863281 443.921875 L 285.964844 443.921875 L 285.964844 453.265625 L 295.25 453.265625 L 295.25 454.554688 L 285.964844 454.554688 L 285.964844 463.902344 L 297.183594 463.902344 L 297.183594 465.195312 L 282.742188 465.195312 Z"/>
  <path fill="#000000" d="M 318.246094 448.335938 C 317.277344 445.242188 314.699219 443.921875 311.476562 443.921875 L 308.542969 443.921875 L 308.542969 454.234375 L 314.054688 454.234375 C 317.40625 454.234375 319.179688 451.398438 318.246094 448.335938 M 305.320312 442.632812 L 313.058594 442.632812 C 317.570312 442.632812 321.566406 445.210938 321.566406 449.078125 C 321.566406 452.75 317.988281 455.265625 313.734375 455.492188 L 321.824219 465.195312 L 317.601562 465.195312 L 309.542969 455.523438 L 308.542969 455.523438 L 308.542969 465.195312 L 305.320312 465.195312 Z"/>
  <path fill="#000000" d="M 338.144531 453.851562 C 338.144531 447.199219 342.65625 442.308594 349.25 442.308594 C 352.019531 442.308594 354.503906 443.332031 356.445312 445.089844 L 355.90625 445.921875 C 354.019531 444.226562 351.734375 443.523438 349.824219 443.523438 C 345.027344 443.523438 341.742188 448 341.742188 453.851562 C 341.742188 459.671875 345.027344 464.179688 349.824219 464.179688 C 351.734375 464.179688 354.019531 463.445312 355.90625 461.78125 L 356.445312 462.613281 C 354.503906 464.371094 352.019531 465.394531 349.25 465.394531 C 342.65625 465.394531 338.144531 460.46875 338.144531 453.851562"/>
  <path fill="#000000" d="M 374.035156 463.890625 L 374.035156 465.074219 L 360.53125 465.074219 L 360.53125 442.691406 L 364.011719 442.691406 L 364.011719 463.890625 Z"/>
  <path fill="#000000" d="M 377.890625 442.691406 L 381.371094 442.691406 L 381.371094 465.074219 L 377.890625 465.074219 Z"/>
  <path fill="#000000" d="M 402.757812 442.691406 L 402.785156 465.074219 L 401.730469 465.074219 L 387.996094 446.242188 L 388.023438 465.074219 L 386.96875 465.074219 L 386.941406 442.691406 L 389.910156 442.691406 L 401.730469 459.0625 L 401.699219 442.691406 Z"/>
  <path fill="#000000" d="M 408.351562 442.691406 L 411.835938 442.691406 L 411.835938 465.074219 L 408.351562 465.074219 Z"/>
  <path fill="#000000" d="M 415.835938 453.851562 C 415.835938 447.199219 420.34375 442.308594 426.941406 442.308594 C 429.710938 442.308594 432.195312 443.332031 434.136719 445.089844 L 433.59375 445.921875 C 431.707031 444.226562 429.425781 443.523438 427.511719 443.523438 C 422.714844 443.523438 419.433594 448 419.433594 453.851562 C 419.433594 459.671875 422.714844 464.179688 427.511719 464.179688 C 429.425781 464.179688 431.707031 463.445312 433.59375 461.78125 L 434.136719 462.613281 C 432.195312 464.371094 429.710938 465.394531 426.941406 465.394531 C 420.34375 465.394531 415.835938 460.46875 415.835938 453.851562"/>
</svg>
