<svg xmlns="http://www.w3.org/2000/svg" viewBox="0 0 24 24" fill="white">
  <path d="M22 10.69c0-4.66-4.68-8.44-10.43-8.44S1.14 6.03 1.14 10.69c0 4.17 3.7 7.67 8.7 8.33.34.07.8.22.92.51.1.26.07.67.03.94l-.15.88c-.04.26-.2 1.01.89.55 1.08-.46 5.83-3.44 7.96-5.89C21.35 14.02 22 12.44 22 10.69zM8.08 13.11H6.09a.46.46 0 01-.46-.46V9.17a.46.46 0 01.92 0v3.02h1.53a.46.46 0 010 .92zm1.76-.46a.46.46 0 01-.92 0V9.17a.46.46 0 01.92 0v3.48zm4.05 0a.46.46 0 01-.82.29l-2-2.72v2.43a.46.46 0 01-.92 0V9.17a.46.46 0 01.82-.29l2 2.72V9.17a.46.46 0 01.92 0v3.48zm3.15-2.56a.46.46 0 010 .92H15.5v.72h1.53a.46.46 0 010 .92H15.05a.46.46 0 01-.46-.46V9.17a.46.46 0 01.46-.46h1.99a.46.46 0 010 .92H15.5v.46h1.53z"/>
</svg>
