<svg xmlns="http://www.w3.org/2000/svg" viewBox="0 0 24 24" fill="white">
  <path d="M8.69 3C4.47 3 1 5.94 1 9.6c0 2.07 1.12 3.93 2.88 5.17l-.72 2.16a.3.3 0 00.42.36l2.56-1.28c.82.24 1.7.37 2.6.39-.17-.55-.25-1.13-.25-1.72 0-3.65 3.46-6.62 7.73-6.62.27 0 .54.01.8.04C16.36 4.91 12.84 3 8.69 3zm-2.7 4.3a1.05 1.05 0 110-2.1 1.05 1.05 0 010 2.1zm5.37 0a1.05 1.05 0 110-2.1 1.05 1.05 0 010 2.1z"/>
  <path d="M22.97 14.68c0-3.17-3.18-5.74-7.1-5.74s-7.1 2.57-7.1 5.74 3.18 5.74 7.1 5.74c.78 0 1.53-.1 2.24-.3l2.17 1.09a.25.25 0 00.36-.3l-.62-1.84c1.51-1.08 2.46-2.68 2.46-4.44h.49zm-9.14-.87a.88.88 0 110-1.75.88.88 0 010 1.75zm4.32 0a.88.88 0 110-1.75.88.88 0 010 1.75z"/>
</svg>
