<svg xmlns="http://www.w3.org/2000/svg" viewBox="0 0 24 24" fill="white">
  <path d="M12.04 2C6.58 2 2.13 6.45 2.13 11.91c0 1.75.46 3.45 1.32 4.95L2.05 22l5.25-1.38c1.45.79 3.08 1.21 4.74 1.21 5.46 0 9.91-4.45 9.91-9.91C21.95 6.45 17.5 2 12.04 2zm5.82 13.97c-.24.68-1.42 1.3-1.96 1.38-.5.08-1.14.11-1.83-.12-.42-.14-.96-.33-1.65-.65-2.89-1.33-4.78-4.28-4.93-4.48-.14-.2-1.18-1.57-1.18-3 0-1.42.75-2.12 1.01-2.42.27-.29.58-.36.78-.36.2 0 .39 0 .56.01.18.01.42-.07.66.5.24.57.82 2 .89 2.15.07.14.12.31.02.5-.1.19-.14.31-.29.48-.14.17-.3.37-.43.5-.14.14-.29.3-.13.58.17.29.74 1.22 1.58 1.97 1.09.97 2.01 1.27 2.29 1.41.29.14.45.12.62-.07.17-.19.71-.83.9-1.12.19-.29.38-.24.63-.14.26.1 1.63.77 1.91.91.29.14.48.21.55.33.07.12.07.68-.17 1.36z"/>
</svg>
